# xmcd
# Copyright (c) 1998 CDDB Inc.
#
# Track frame offsets:
#	150
#	12606
#	23310
#	36630
#	62838
#	79182
#	99150
#
# Disc length: 1569 seconds
#
# Revision: 0
# Processed by: cddbd v1.4PL0 Copyright (c) Steve Scherf et al.
# Submitted via: audiograbber 1.61
#
DISCID=4e061f07
DTITLE=The Maphones - The Maphones
DYEAR=1900
DGENRE=
TTITLE0=Release My Bones
TTITLE1=Prehistoric Photograph
TTITLE2=Shallows
TTITLE3=The Wash - The After
TTITLE4=Watching Ourselves
TTITLE5=Bedlight
TTITLE6=Sleeping off the Blues
EXTD=7 track EP
EXTT0=
EXTT1=
EXTT2=
EXTT3=
EXTT4=
EXTT5=
EXTT6=
PLAYORDER=
